<svg xmlns="http://www.w3.org/2000/svg" width="55" height="48" viewBox="0 0 55 48" fill="none">
  <path d="M42.3609 20.4758C42.3609 27.9866 36.1288 34.0742 28.4397 34.0742H21.7487C14.0596 34.0742 7.82748 27.9866 7.82748 20.4758C7.82748 12.9651 14.0596 6.87744 21.7487 6.87744H28.4397C36.1288 6.87744 42.3609 12.9651 42.3609 20.4758Z" fill="url(#paint0_radial_1046_1862)"/>
  <path d="M16.9844 13.1714H33.1967C35.7536 13.1714 37.8298 15.1994 37.8298 17.6971V23.251C37.8298 25.7487 35.7536 27.7767 33.1967 27.7767H16.9808C14.4238 27.7767 12.3477 25.7487 12.3477 23.251V17.6971C12.3477 15.1994 14.4238 13.1714 16.9808 13.1714H16.9844Z" fill="url(#paint1_radial_1046_1862)"/>
  <path opacity="0.2" d="M37.8334 17.6971C37.8334 15.1994 35.7573 13.1714 33.2003 13.1714H16.9881C14.4275 13.1714 12.355 15.1958 12.355 17.6971V19.4796C29.1646 16.2063 37.8334 19.4796 37.8334 19.4796V17.6971Z" fill="white"/>
  <g filter="url(#filter0_d_1046_1862)">
    <path d="M21.4755 20.0916C21.4755 21.0807 20.656 21.8813 19.6434 21.8813C18.6308 21.8813 17.8113 21.0807 17.8113 20.0916C17.8113 19.1025 18.6308 18.302 19.6434 18.302C20.656 18.302 21.4755 19.1025 21.4755 20.0916Z" fill="#42EDE6"/>
  </g>
  <g filter="url(#filter1_d_1046_1862)">
    <path d="M32.9017 20.0916C32.9017 21.0807 32.0821 21.8813 31.0695 21.8813C30.057 21.8813 29.2374 21.0807 29.2374 20.0916C29.2374 19.1025 30.057 18.302 31.0695 18.302C32.0821 18.302 32.9017 19.1025 32.9017 20.0916Z" fill="#42EDE6"/>
  </g>
  <path style="mix-blend-mode:screen" d="M13.4623 10.7664L13.6444 12.1077C13.6444 12.1077 12.355 12.4991 11.4954 13.449C11.4954 13.449 11.3642 11.8444 13.4623 10.7664Z" fill="url(#paint2_linear_1046_1862)"/>
  <path style="mix-blend-mode:screen" d="M17.8113 9.07283C17.8113 9.07283 19.1808 8.15844 21.2934 8.3648H28.5308C28.5308 8.3648 30.7745 8.63876 31.2662 9.46064L17.8076 9.07283H17.8113Z" fill="url(#paint3_linear_1046_1862)"/>
  <path d="M26.207 2.98511H25.249V6.87748H26.207V2.98511Z" fill="url(#paint4_linear_1046_1862)"/>
  <path d="M27.4272 1.66155C27.4272 2.5795 26.6659 3.3231 25.7262 3.3231C24.7864 3.3231 24.0252 2.5795 24.0252 1.66155C24.0252 0.743607 24.7864 0 25.7262 0C26.6659 0 27.4272 0.743607 27.4272 1.66155Z" fill="url(#paint5_radial_1046_1862)"/>
  <path d="M8.76358 14.6301H7.37947C7.37947 14.6301 5.61292 16.434 5.86788 20.2303C5.86788 20.2303 5.77682 23.6352 7.30298 25.3359H8.69802L8.76358 14.6301Z" fill="url(#paint6_linear_1046_1862)"/>
  <path d="M9.20431 14.6301H8.57417V25.3359H9.20431V14.6301Z" fill="#42EDE6"/>
  <path d="M41.4248 14.6301H42.8089C42.8089 14.6301 44.5719 16.434 44.3205 20.2303C44.3205 20.2303 44.4116 23.6352 42.8854 25.3359H41.4904L41.4248 14.6301Z" fill="url(#paint7_linear_1046_1862)"/>
  <path d="M41.6142 14.6301H40.9841V25.3359H41.6142V14.6301Z" fill="#42EDE6"/>
  <defs>
    <filter id="filter0_d_1046_1862" x="6.47126" y="6.962" width="26.3442" height="26.2593" filterUnits="userSpaceOnUse" color-interpolation-filters="sRGB">
      <feFlood flood-opacity="0" result="BackgroundImageFix"/>
      <feColorMatrix in="SourceAlpha" type="matrix" values="0 0 0 0 0 0 0 0 0 0 0 0 0 0 0 0 0 0 127 0" result="hardAlpha"/>
      <feOffset/>
      <feGaussianBlur stdDeviation="5.67"/>
      <feColorMatrix type="matrix" values="0 0 0 0 0.701961 0 0 0 0 1 0 0 0 0 0.976471 0 0 0 1 0"/>
      <feBlend mode="normal" in2="BackgroundImageFix" result="effect1_dropShadow_1046_1862"/>
      <feBlend mode="normal" in="SourceGraphic" in2="effect1_dropShadow_1046_1862" result="shape"/>
    </filter>
    <filter id="filter1_d_1046_1862" x="17.8974" y="6.962" width="26.3442" height="26.2593" filterUnits="userSpaceOnUse" color-interpolation-filters="sRGB">
      <feFlood flood-opacity="0" result="BackgroundImageFix"/>
      <feColorMatrix in="SourceAlpha" type="matrix" values="0 0 0 0 0 0 0 0 0 0 0 0 0 0 0 0 0 0 127 0" result="hardAlpha"/>
      <feOffset/>
      <feGaussianBlur stdDeviation="5.67"/>
      <feColorMatrix type="matrix" values="0 0 0 0 0.701961 0 0 0 0 1 0 0 0 0 0.976471 0 0 0 1 0"/>
      <feBlend mode="normal" in2="BackgroundImageFix" result="effect1_dropShadow_1046_1862"/>
      <feBlend mode="normal" in="SourceGraphic" in2="effect1_dropShadow_1046_1862" result="shape"/>
    </filter>
    <radialGradient id="paint0_radial_1046_1862" cx="0" cy="0" r="1" gradientUnits="userSpaceOnUse" gradientTransform="translate(25.0924 20.4758) scale(15.6841 15.3204)">
      <stop stop-color="#F1F1F5"/>
      <stop offset="0.55" stop-color="#E4E2EC"/>
      <stop offset="1" stop-color="#CFCFDE"/>
    </radialGradient>
    <radialGradient id="paint1_radial_1046_1862" cx="0" cy="0" r="1" gradientUnits="userSpaceOnUse" gradientTransform="translate(25.0924 20.4906) scale(10.4464 9.48985)">
      <stop stop-color="#3E3C44"/>
      <stop offset="0.55" stop-color="#242327"/>
      <stop offset="1" stop-color="#040100"/>
    </radialGradient>
    <linearGradient id="paint2_linear_1046_1862" x1="11.4917" y1="12.1077" x2="14.453" y2="12.1077" gradientUnits="userSpaceOnUse">
      <stop stop-color="white"/>
      <stop offset="1"/>
    </linearGradient>
    <linearGradient id="paint3_linear_1046_1862" x1="17.8113" y1="8.89493" x2="36.3437" y2="8.89493" gradientUnits="userSpaceOnUse">
      <stop stop-color="white"/>
      <stop offset="1"/>
    </linearGradient>
    <linearGradient id="paint4_linear_1046_1862" x1="25.249" y1="4.93129" x2="26.2033" y2="4.93129" gradientUnits="userSpaceOnUse">
      <stop stop-color="#F1F1F5"/>
      <stop offset="0.55" stop-color="#E4E2EC"/>
      <stop offset="1" stop-color="#CFCFDE"/>
    </linearGradient>
    <radialGradient id="paint5_radial_1046_1862" cx="0" cy="0" r="1" gradientUnits="userSpaceOnUse" gradientTransform="translate(25.7262 1.66155) scale(1.70099 1.66155)">
      <stop stop-color="#F1F1F5"/>
      <stop offset="0.55" stop-color="#E4E2EC"/>
      <stop offset="1" stop-color="#CFCFDE"/>
    </radialGradient>
    <linearGradient id="paint6_linear_1046_1862" x1="7.30298" y1="14.865" x2="7.30298" y2="24.9268" gradientUnits="userSpaceOnUse">
      <stop stop-color="#F1F1F5"/>
      <stop offset="0.52" stop-color="#D5CFD9"/>
      <stop offset="1" stop-color="#BBBBCA"/>
    </linearGradient>
    <linearGradient id="paint7_linear_1046_1862" x1="42.8854" y1="-7.14932e-05" x2="42.8854" y2="-7.14932e-05" gradientUnits="userSpaceOnUse">
      <stop stop-color="#F1F1F5"/>
      <stop offset="0.52" stop-color="#D5CFD9"/>
      <stop offset="1" stop-color="#BBBBCA"/>
    </linearGradient>
  </defs>
</svg>