<svg xmlns="http://www.w3.org/2000/svg" width="37" height="32" viewBox="0 0 37 32" fill="none">
  <g clip-path="url(#clip0_239_709)">
    <path d="M28.5742 13.6506C28.5742 18.6578 24.4195 22.7162 19.2934 22.7162H14.8327C9.70669 22.7162 5.55194 18.6578 5.55194 13.6506C5.55194 8.64337 9.70669 4.58496 14.8327 4.58496H19.2934C24.4195 4.58496 28.5742 8.64337 28.5742 13.6506Z" fill="url(#paint0_radial_239_709)"/>
    <path d="M11.6566 8.78094H22.4648C24.1694 8.78094 25.5535 10.133 25.5535 11.7981V15.5007C25.5535 17.1658 24.1694 18.5178 22.4648 18.5178H11.6542C9.94954 18.5178 8.56543 17.1658 8.56543 15.5007V11.7981C8.56543 10.133 9.94954 8.78094 11.6542 8.78094H11.6566Z" fill="url(#paint1_radial_239_709)"/>
    <path opacity="0.2" d="M25.5559 11.7981C25.5559 10.133 24.1718 8.78094 22.4672 8.78094H11.659C9.95193 8.78094 8.57025 10.1306 8.57025 11.7981V12.9864C19.7767 10.8042 25.5559 12.9864 25.5559 12.9864V11.7981Z" fill="white"/>
    <g filter="url(#filter0_d_239_709)">
      <path d="M14.6506 13.3944C14.6506 14.0538 14.1042 14.5875 13.4292 14.5875C12.7541 14.5875 12.2078 14.0538 12.2078 13.3944C12.2078 12.735 12.7541 12.2013 13.4292 12.2013C14.1042 12.2013 14.6506 12.735 14.6506 13.3944Z" fill="#42EDE6"/>
    </g>
    <g filter="url(#filter1_d_239_709)">
      <path d="M22.268 13.3944C22.268 14.0538 21.7217 14.5875 21.0466 14.5875C20.3716 14.5875 19.8252 14.0538 19.8252 13.3944C19.8252 12.735 20.3716 12.2013 21.0466 12.2013C21.7217 12.2013 22.268 12.735 22.268 13.3944Z" fill="#42EDE6"/>
    </g>
    <path style="mix-blend-mode:screen" d="M9.30843 7.17755L9.42984 8.07178C9.42984 8.07178 8.57024 8.33269 7.99717 8.966C7.99717 8.966 7.90976 7.89625 9.30843 7.17755Z" fill="url(#paint2_linear_239_709)"/>
    <path style="mix-blend-mode:screen" d="M12.2078 6.04845C12.2078 6.04845 13.1208 5.43886 14.5292 5.57643H19.3542C19.3542 5.57643 20.85 5.75907 21.1778 6.30699L12.2054 6.04845H12.2078Z" fill="url(#paint3_linear_239_709)"/>
    <path d="M17.8049 1.99005H17.1663V4.58497H17.8049V1.99005Z" fill="url(#paint4_linear_239_709)"/>
    <path d="M18.6184 1.1077C18.6184 1.71966 18.1109 2.2154 17.4844 2.2154C16.8579 2.2154 16.3504 1.71966 16.3504 1.1077C16.3504 0.495738 16.8579 0 17.4844 0C18.1109 0 18.6184 0.495738 18.6184 1.1077Z" fill="url(#paint5_radial_239_709)"/>
    <path d="M6.176 9.75348H5.25326C5.25326 9.75348 4.07556 10.9561 4.24554 13.4869C4.24554 13.4869 4.18483 15.7569 5.20227 16.8907H6.13229L6.176 9.75348Z" fill="url(#paint6_linear_239_709)"/>
    <path d="M6.46983 9.75348H6.04974V16.8907H6.46983V9.75348Z" fill="#42EDE6"/>
    <path d="M27.9502 9.75348H28.8729C28.8729 9.75348 30.0482 10.9561 29.8807 13.4869C29.8807 13.4869 29.9414 15.7569 28.9239 16.8907H27.9939L27.9502 9.75348Z" fill="url(#paint7_linear_239_709)"/>
    <path d="M28.0765 9.75348H27.6564V16.8907H28.0765V9.75348Z" fill="#42EDE6"/>
  </g>
  <defs>
    <filter id="filter0_d_239_709" x="0.867764" y="0.861294" width="25.1228" height="25.0662" filterUnits="userSpaceOnUse" color-interpolation-filters="sRGB">
      <feFlood flood-opacity="0" result="BackgroundImageFix"/>
      <feColorMatrix in="SourceAlpha" type="matrix" values="0 0 0 0 0 0 0 0 0 0 0 0 0 0 0 0 0 0 127 0" result="hardAlpha"/>
      <feOffset/>
      <feGaussianBlur stdDeviation="5.67"/>
      <feColorMatrix type="matrix" values="0 0 0 0 0.701961 0 0 0 0 1 0 0 0 0 0.976471 0 0 0 1 0"/>
      <feBlend mode="normal" in2="BackgroundImageFix" result="effect1_dropShadow_239_709"/>
      <feBlend mode="normal" in="SourceGraphic" in2="effect1_dropShadow_239_709" result="shape"/>
    </filter>
    <filter id="filter1_d_239_709" x="8.4852" y="0.861294" width="25.1228" height="25.0662" filterUnits="userSpaceOnUse" color-interpolation-filters="sRGB">
      <feFlood flood-opacity="0" result="BackgroundImageFix"/>
      <feColorMatrix in="SourceAlpha" type="matrix" values="0 0 0 0 0 0 0 0 0 0 0 0 0 0 0 0 0 0 127 0" result="hardAlpha"/>
      <feOffset/>
      <feGaussianBlur stdDeviation="5.67"/>
      <feColorMatrix type="matrix" values="0 0 0 0 0.701961 0 0 0 0 1 0 0 0 0 0.976471 0 0 0 1 0"/>
      <feBlend mode="normal" in2="BackgroundImageFix" result="effect1_dropShadow_239_709"/>
      <feBlend mode="normal" in="SourceGraphic" in2="effect1_dropShadow_239_709" result="shape"/>
    </filter>
    <radialGradient id="paint0_radial_239_709" cx="0" cy="0" r="1" gradientUnits="userSpaceOnUse" gradientTransform="translate(17.0619 13.6506) scale(10.4561 10.2136)">
      <stop stop-color="#F1F1F5"/>
      <stop offset="0.55" stop-color="#E4E2EC"/>
      <stop offset="1" stop-color="#CFCFDE"/>
    </radialGradient>
    <radialGradient id="paint1_radial_239_709" cx="0" cy="0" r="1" gradientUnits="userSpaceOnUse" gradientTransform="translate(17.0619 13.6604) scale(6.96424 6.32656)">
      <stop stop-color="#3E3C44"/>
      <stop offset="0.55" stop-color="#242327"/>
      <stop offset="1" stop-color="#040100"/>
    </radialGradient>
    <linearGradient id="paint2_linear_239_709" x1="7.99474" y1="8.07178" x2="9.96892" y2="8.07178" gradientUnits="userSpaceOnUse">
      <stop stop-color="white"/>
      <stop offset="1"/>
    </linearGradient>
    <linearGradient id="paint3_linear_239_709" x1="12.2078" y1="5.92985" x2="24.5628" y2="5.92985" gradientUnits="userSpaceOnUse">
      <stop stop-color="white"/>
      <stop offset="1"/>
    </linearGradient>
    <linearGradient id="paint4_linear_239_709" x1="17.1663" y1="3.28751" x2="17.8025" y2="3.28751" gradientUnits="userSpaceOnUse">
      <stop stop-color="#F1F1F5"/>
      <stop offset="0.55" stop-color="#E4E2EC"/>
      <stop offset="1" stop-color="#CFCFDE"/>
    </linearGradient>
    <radialGradient id="paint5_radial_239_709" cx="0" cy="0" r="1" gradientUnits="userSpaceOnUse" gradientTransform="translate(17.4844 1.1077) scale(1.134 1.1077)">
      <stop stop-color="#F1F1F5"/>
      <stop offset="0.55" stop-color="#E4E2EC"/>
      <stop offset="1" stop-color="#CFCFDE"/>
    </radialGradient>
    <linearGradient id="paint6_linear_239_709" x1="5.20227" y1="9.91003" x2="5.20227" y2="16.6179" gradientUnits="userSpaceOnUse">
      <stop stop-color="#F1F1F5"/>
      <stop offset="0.52" stop-color="#D5CFD9"/>
      <stop offset="1" stop-color="#BBBBCA"/>
    </linearGradient>
    <linearGradient id="paint7_linear_239_709" x1="28.9239" y1="1.38074e-05" x2="28.9239" y2="1.38074e-05" gradientUnits="userSpaceOnUse">
      <stop stop-color="#F1F1F5"/>
      <stop offset="0.52" stop-color="#D5CFD9"/>
      <stop offset="1" stop-color="#BBBBCA"/>
    </linearGradient>
    <clipPath id="clip0_239_709">
      <rect width="36.6667" height="32" fill="white" transform="translate(0.333618)"/>
    </clipPath>
  </defs>
</svg>